ExploreSansVariable_ExtraThinSerif.ufo
<glyph name="exclam" format="2">
  <advance width="234"/>
  <unicode hex="0021"/>
  <outline>
    <contour>
      <point x="100" y="716" type="line"/>
      <point x="135" y="716" type="line"/>
      <point x="132" y="185" type="line"/>
      <point x="101" y="185" type="line"/>
    </contour>
    <contour>
      <point x="116.2" y="71.6" type="curve" smooth="yes"/>
      <point x="141" y="72"/>
      <point x="156" y="54"/>
      <point x="156" y="32" type="curve" smooth="yes"/>
      <point x="156" y="11"/>
      <point x="139" y="-7"/>
      <point x="116.2" y="-7" type="curve" smooth="yes"/>
      <point x="93" y="-7"/>
      <point x="77" y="11"/>
      <point x="77" y="32" type="curve" smooth="yes"/>
      <point x="77" y="54"/>
      <point x="92" y="72"/>
    </contour>
  </outline>
</glyph>
<glyph name="dollar" format="2">
  <advance width="576"/>
  <unicode hex="0024"/>
  <outline>
    <contour>
      <point x="270" y="864" type="line"/>
      <point x="305" y="864" type="line"/>
      <point x="305" y="-138" type="line"/>
      <point x="270" y="-138" type="line"/>
    </contour>
    <component base="S" xOffset="6" yOffset="1"/>
  </outline>
</glyph>
<glyph name="percent" format="2">
  <advance width="736"/>
  <unicode hex="0025"/>
  <outline>
    <contour>
      <point x="559" y="708" type="line"/>
      <point x="591" y="708" type="line"/>
      <point x="174" y="0" type="line"/>
      <point x="141" y="0" type="line"/>
    </contour>
    <contour>
      <point x="514" y="299" type="curve" smooth="yes"/>
      <point x="594" y="299"/>
      <point x="646" y="233"/>
      <point x="646" y="145" type="curve" smooth="yes"/>
      <point x="646" y="56"/>
      <point x="594" y="-8"/>
      <point x="514" y="-8" type="curve" smooth="yes"/>
      <point x="434" y="-8"/>
      <point x="384" y="56"/>
      <point x="384" y="145" type="curve" smooth="yes"/>
      <point x="384" y="233"/>
      <point x="434" y="299"/>
    </contour>
    <contour>
      <point x="514" y="275" type="curve" smooth="yes"/>
      <point x="453" y="275"/>
      <point x="416" y="219"/>
      <point x="416" y="145" type="curve" smooth="yes"/>
      <point x="416" y="64"/>
      <point x="453" y="16"/>
      <point x="514" y="16" type="curve" smooth="yes"/>
      <point x="574" y="16"/>
      <point x="614" y="64"/>
      <point x="614" y="145" type="curve" smooth="yes"/>
      <point x="614" y="219"/>
      <point x="574" y="275"/>
    </contour>
    <contour>
      <point x="221" y="692" type="curve" smooth="yes"/>
      <point x="161" y="692"/>
      <point x="122" y="633"/>
      <point x="122" y="564" type="curve" smooth="yes"/>
      <point x="122" y="494"/>
      <point x="161" y="433"/>
      <point x="221" y="433" type="curve" smooth="yes"/>
      <point x="282" y="433"/>
      <point x="321" y="494"/>
      <point x="321" y="564" type="curve" smooth="yes"/>
      <point x="321" y="633"/>
      <point x="282" y="692"/>
    </contour>
    <contour>
      <point x="221" y="716" type="curve" smooth="yes"/>
      <point x="301" y="716"/>
      <point x="353" y="651"/>
      <point x="353" y="564" type="curve" smooth="yes"/>
      <point x="353" y="475"/>
      <point x="303" y="409"/>
      <point x="221" y="409" type="curve" smooth="yes"/>
      <point x="139" y="409"/>
      <point x="90" y="476"/>
      <point x="90" y="564" type="curve" smooth="yes"/>
      <point x="90" y="651"/>
      <point x="142" y="716"/>
    </contour>
  </outline>
</glyph>
<glyph name="ampersand" format="2">
  <advance width="700"/>
  <unicode hex="0026"/>
  <outline>
    <contour>
      <point x="246" y="429" type="curve"/>
      <point x="256" y="406" type="line"/>
      <point x="161" y="402"/>
      <point x="88" y="331"/>
      <point x="88" y="214" type="curve" smooth="yes"/>
      <point x="88" y="111"/>
      <point x="145" y="18"/>
      <point x="283" y="18" type="curve" smooth="yes"/>
      <point x="467" y="18"/>
      <point x="536" y="190"/>
      <point x="536" y="389" type="curve"/>
      <point x="564" y="384" type="line"/>
      <point x="564" y="182"/>
      <point x="488" y="-8"/>
      <point x="278" y="-8" type="curve" smooth="yes"/>
      <point x="133" y="-8"/>
      <point x="56" y="86"/>
      <point x="56" y="214" type="curve" smooth="yes"/>
      <point x="56" y="347"/>
      <point x="145" y="425"/>
    </contour>
    <contour>
      <point x="439" y="417" type="line"/>
      <point x="644" y="388" type="line"/>
      <point x="644" y="361" type="line"/>
      <point x="439" y="393" type="line"/>
    </contour>
    <contour>
      <point x="340" y="716" type="curve" smooth="yes"/>
      <point x="384" y="716"/>
      <point x="424" y="703"/>
      <point x="451" y="683" type="curve"/>
      <point x="451" y="593" type="line"/>
      <point x="419" y="593" type="line"/>
      <point x="419" y="671" type="line"/>
      <point x="393" y="686"/>
      <point x="370" y="690"/>
      <point x="336" y="690" type="curve" smooth="yes"/>
      <point x="243" y="690"/>
      <point x="209" y="621"/>
      <point x="209" y="564" type="curve" smooth="yes"/>
      <point x="209" y="509"/>
      <point x="226" y="468"/>
      <point x="255" y="429" type="curve" smooth="yes"/>
      <point x="556" y="28" type="line"/>
      <point x="644" y="28" type="line"/>
      <point x="644" y="0" type="line"/>
      <point x="534" y="0" type="line"/>
      <point x="245" y="392" type="line" smooth="yes"/>
      <point x="204" y="448"/>
      <point x="177" y="501"/>
      <point x="177" y="558" type="curve" smooth="yes"/>
      <point x="177" y="630"/>
      <point x="219" y="716"/>
    </contour>
  </outline>
</glyph>
<glyph name="parenleft" format="2">
  <advance width="238"/>
  <unicode hex="0028"/>
  <outline>
    <contour>
      <point x="189" y="800" type="curve"/>
      <point x="202" y="785" type="line"/>
      <point x="110" y="702"/>
      <point x="59" y="544"/>
      <point x="59" y="366" type="curve" smooth="yes"/>
      <point x="59" y="214"/>
      <point x="108" y="42"/>
      <point x="200" y="-49" type="curve"/>
      <point x="188" y="-64" type="line"/>
      <point x="91" y="24"/>
      <point x="27" y="182"/>
      <point x="27" y="366" type="curve" smooth="yes"/>
      <point x="27" y="572"/>
      <point x="93" y="714"/>
    </contour>
  </outline>
</glyph>
<glyph name="parenright" format="2">
  <advance width="238"/>
  <unicode hex="0029"/>
  <outline>
    <contour>
      <point x="49" y="800" type="curve"/>
      <point x="36" y="785" type="line"/>
      <point x="128" y="702"/>
      <point x="179" y="544"/>
      <point x="179" y="366" type="curve" smooth="yes"/>
      <point x="179" y="214"/>
      <point x="130" y="42"/>
      <point x="38" y="-49" type="curve"/>
      <point x="50" y="-64" type="line"/>
      <point x="147" y="24"/>
      <point x="211" y="182"/>
      <point x="211" y="366" type="curve" smooth="yes"/>
      <point x="211" y="572"/>
      <point x="145" y="714"/>
    </contour>
  </outline>
</glyph>
<glyph name="asterisk" format="2">
  <advance width="467"/>
  <unicode hex="002A"/>
  <outline>
    <contour>
      <point x="217" y="806" type="line"/>
      <point x="250" y="806" type="line"/>
      <point x="250" y="785" type="line"/>
      <point x="238" y="624" type="line"/>
      <point x="372" y="686" type="line"/>
      <point x="404" y="698" type="line"/>
      <point x="415" y="669" type="line"/>
      <point x="395" y="660" type="line"/>
      <point x="239" y="616" type="line"/>
      <point x="334" y="511" type="line"/>
      <point x="358" y="476" type="line"/>
      <point x="333" y="458" type="line"/>
      <point x="309" y="494" type="line"/>
      <point x="234" y="611" type="line"/>
      <point x="159" y="494" type="line"/>
      <point x="134" y="458" type="line"/>
      <point x="109" y="476" type="line"/>
      <point x="131" y="511" type="line"/>
      <point x="229" y="616" type="line"/>
      <point x="77" y="660" type="line"/>
      <point x="52" y="669" type="line"/>
      <point x="62" y="698" type="line"/>
      <point x="97" y="686" type="line"/>
      <point x="230" y="624" type="line"/>
      <point x="217" y="785" type="line"/>
    </contour>
  </outline>
</glyph>
<glyph name="period" format="2">
  <advance width="191"/>
  <unicode hex="002E"/>
  <outline>
    <contour>
      <point x="95" y="71" type="curve" smooth="yes"/>
      <point x="118" y="71"/>
      <point x="135" y="55"/>
      <point x="135" y="31" type="curve" smooth="yes"/>
      <point x="135" y="7"/>
      <point x="118" y="-8"/>
      <point x="95" y="-8" type="curve" smooth="yes"/>
      <point x="72" y="-8"/>
      <point x="56" y="7"/>
      <point x="56" y="31" type="curve" smooth="yes"/>
      <point x="56" y="55"/>
      <point x="72" y="71"/>
    </contour>
  </outline>
</glyph>
<glyph name="one" format="2">
  <advance width="550"/>
  <unicode hex="0031"/>
  <outline>
    <contour>
      <point x="267" y="681" type="curve"/>
      <point x="267" y="28" type="line"/>
      <point x="101" y="28" type="line"/>
      <point x="101" y="0" type="line"/>
      <point x="457" y="0" type="line"/>
      <point x="457" y="28" type="line"/>
      <point x="299" y="28" type="line"/>
      <point x="299" y="708" type="line"/>
      <point x="270" y="708" type="line"/>
      <point x="255" y="698"/>
      <point x="151" y="633"/>
      <point x="111" y="612" type="curve"/>
      <point x="111" y="577" type="line"/>
      <point x="151" y="596"/>
      <point x="224" y="644"/>
    </contour>
  </outline>
</glyph>
<glyph name="two" format="2">
  <advance width="550"/>
  <unicode hex="0032"/>
  <outline>
    <contour>
      <point x="82" y="543" type="line" smooth="yes"/>
      <point x="83" y="530"/>
      <point x="87" y="524"/>
      <point x="98" y="522" type="curve" smooth="yes"/>
      <point x="105" y="521" type="line"/>
      <point x="109" y="641" type="line"/>
      <point x="151" y="678"/>
      <point x="181" y="694"/>
      <point x="251" y="694" type="curve" smooth="yes"/>
      <point x="354" y="694"/>
      <point x="432" y="636"/>
      <point x="432" y="524" type="curve" smooth="yes"/>
      <point x="432" y="428"/>
      <point x="360" y="352"/>
      <point x="296" y="274" type="curve" smooth="yes"/>
      <point x="83" y="14" type="line"/>
      <point x="83" y="0" type="line"/>
      <point x="472" y="0" type="line"/>
      <point x="472" y="22" type="line"/>
      <point x="123" y="22" type="line"/>
      <point x="330" y="271" type="line" smooth="yes"/>
      <point x="392" y="346"/>
      <point x="464" y="432"/>
      <point x="464" y="524" type="curve" smooth="yes"/>
      <point x="464" y="640"/>
      <point x="384" y="716"/>
      <point x="251" y="716" type="curve" smooth="yes"/>
      <point x="181" y="716"/>
      <point x="130" y="701"/>
      <point x="73" y="644" type="curve"/>
    </contour>
  </outline>
</glyph>
<glyph name="three" format="2">
  <advance width="550"/>
  <unicode hex="0033"/>
  <outline>
    <contour>
      <point x="88" y="708" type="line"/>
      <point x="450" y="708" type="line"/>
      <point x="450" y="682" type="line"/>
      <point x="261" y="423" type="line"/>
      <point x="382" y="423"/>
      <point x="484" y="350"/>
      <point x="484" y="214" type="curve" smooth="yes"/>
      <point x="484" y="81"/>
      <point x="404" y="-8"/>
      <point x="262" y="-8" type="curve" smooth="yes"/>
      <point x="171" y="-8"/>
      <point x="115" y="13"/>
      <point x="67" y="52" type="curve"/>
      <point x="69" y="83" type="line"/>
      <point x="123" y="36"/>
      <point x="181" y="18"/>
      <point x="262" y="18" type="curve" smooth="yes"/>
      <point x="397" y="18"/>
      <point x="452" y="105"/>
      <point x="452" y="214" type="curve" smooth="yes"/>
      <point x="452" y="316"/>
      <point x="375" y="397"/>
      <point x="267" y="397" type="curve" smooth="yes"/>
      <point x="230" y="397" type="line"/>
      <point x="230" y="422" type="line"/>
      <point x="418" y="678" type="line"/>
      <point x="108" y="678" type="line"/>
      <point x="108" y="591" type="line"/>
      <point x="88" y="591" type="line"/>
    </contour>
  </outline>
</glyph>
<glyph name="four" format="2">
  <advance width="550"/>
  <unicode hex="0034"/>
  <outline>
    <contour>
      <point x="279" y="708" type="line"/>
      <point x="315" y="708" type="line"/>
      <point x="75" y="210" type="line"/>
      <point x="367" y="210" type="line"/>
      <point x="367" y="417" type="line"/>
      <point x="399" y="417" type="line"/>
      <point x="399" y="210" type="line"/>
      <point x="501" y="210" type="line"/>
      <point x="501" y="188" type="line"/>
      <point x="399" y="188" type="line"/>
      <point x="399" y="0" type="line"/>
      <point x="367" y="0" type="line"/>
      <point x="367" y="188" type="line"/>
      <point x="50" y="188" type="line"/>
      <point x="50" y="210" type="line"/>
    </contour>
  </outline>
</glyph>
<glyph name="five" format="2">
  <advance width="550"/>
  <unicode hex="0035"/>
  <outline>
    <contour>
      <point x="112" y="708" type="line"/>
      <point x="460" y="708" type="line"/>
      <point x="460" y="677" type="line"/>
      <point x="141" y="686" type="line"/>
      <point x="129" y="374" type="line"/>
      <point x="165" y="417"/>
      <point x="218" y="435"/>
      <point x="276" y="435" type="curve" smooth="yes"/>
      <point x="398" y="435"/>
      <point x="486" y="354"/>
      <point x="486" y="214" type="curve" smooth="yes"/>
      <point x="486" y="70"/>
      <point x="388" y="-8"/>
      <point x="253" y="-8" type="curve" smooth="yes"/>
      <point x="174" y="-8"/>
      <point x="114" y="10"/>
      <point x="53" y="58" type="curve"/>
      <point x="73" y="83" type="line"/>
      <point x="119" y="42"/>
      <point x="193" y="14"/>
      <point x="253" y="14" type="curve" smooth="yes"/>
      <point x="390" y="14"/>
      <point x="454" y="102"/>
      <point x="454" y="211" type="curve" smooth="yes"/>
      <point x="454" y="336"/>
      <point x="372" y="415"/>
      <point x="273" y="415" type="curve" smooth="yes"/>
      <point x="185" y="415"/>
      <point x="144" y="369"/>
      <point x="110" y="338" type="curve"/>
      <point x="96" y="338" type="line"/>
    </contour>
  </outline>
</glyph>
<glyph name="six" format="2">
  <advance width="550"/>
  <unicode hex="0036"/>
  <outline>
    <contour>
      <point x="365" y="719" type="curve"/>
      <point x="368" y="695" type="line"/>
      <point x="218" y="677"/>
      <point x="101" y="519"/>
      <point x="101" y="321" type="curve"/>
      <point x="130" y="378"/>
      <point x="179" y="443"/>
      <point x="290" y="443" type="curve" smooth="yes"/>
      <point x="403" y="443"/>
      <point x="486" y="366"/>
      <point x="486" y="223" type="curve" smooth="yes"/>
      <point x="486" y="88"/>
      <point x="403" y="-8"/>
      <point x="280" y="-8" type="curve" smooth="yes"/>
      <point x="140" y="-8"/>
      <point x="70" y="83"/>
      <point x="70" y="302" type="curve" smooth="yes"/>
      <point x="70" y="527"/>
      <point x="196" y="699"/>
    </contour>
    <contour>
      <point x="278" y="417" type="curve" smooth="yes"/>
      <point x="180" y="417"/>
      <point x="102" y="329"/>
      <point x="102" y="223" type="curve" smooth="yes"/>
      <point x="102" y="101"/>
      <point x="167" y="18"/>
      <point x="278" y="18" type="curve" smooth="yes"/>
      <point x="384" y="18"/>
      <point x="454" y="100"/>
      <point x="454" y="223" type="curve" smooth="yes"/>
      <point x="454" y="344"/>
      <point x="385" y="417"/>
    </contour>
  </outline>
</glyph>
<glyph name="seven" format="2">
  <advance width="550"/>
  <unicode hex="0037"/>
  <outline>
    <contour>
      <point x="65" y="708" type="line"/>
      <point x="479" y="708" type="line"/>
      <point x="479" y="679" type="line"/>
      <point x="199" y="0" type="line"/>
      <point x="160" y="0" type="line"/>
      <point x="448" y="676" type="line"/>
      <point x="62" y="676" type="line"/>
    </contour>
  </outline>
</glyph>
<glyph name="eight" format="2">
  <advance width="550"/>
  <unicode hex="0038"/>
  <outline>
    <contour>
      <point x="274" y="716" type="curve" smooth="yes"/>
      <point x="390" y="716"/>
      <point x="471" y="640"/>
      <point x="471" y="529" type="curve" smooth="yes"/>
      <point x="471" y="452"/>
      <point x="410" y="383"/>
      <point x="354" y="366" type="curve"/>
      <point x="421" y="348"/>
      <point x="486" y="287"/>
      <point x="486" y="185" type="curve" smooth="yes"/>
      <point x="486" y="73"/>
      <point x="403" y="-7"/>
      <point x="274" y="-7" type="curve" smooth="yes"/>
      <point x="146" y="-7"/>
      <point x="64" y="71"/>
      <point x="64" y="183" type="curve" smooth="yes"/>
      <point x="64" y="298"/>
      <point x="124" y="337"/>
      <point x="194" y="366" type="curve"/>
      <point x="132" y="384"/>
      <point x="79" y="442"/>
      <point x="79" y="529" type="curve" smooth="yes"/>
      <point x="79" y="642"/>
      <point x="158" y="716"/>
    </contour>
    <contour>
      <point x="274" y="694" type="curve" smooth="yes"/>
      <point x="176" y="694"/>
      <point x="111" y="627"/>
      <point x="111" y="531" type="curve" smooth="yes"/>
      <point x="111" y="434"/>
      <point x="191" y="376"/>
      <point x="274" y="376" type="curve" smooth="yes"/>
      <point x="359" y="376"/>
      <point x="439" y="434"/>
      <point x="439" y="531" type="curve" smooth="yes"/>
      <point x="439" y="627"/>
      <point x="373" y="694"/>
    </contour>
    <contour>
      <point x="274" y="357" type="curve" smooth="yes"/>
      <point x="184" y="357"/>
      <point x="96" y="295"/>
      <point x="96" y="191" type="curve" smooth="yes"/>
      <point x="96" y="81"/>
      <point x="175" y="15"/>
      <point x="274" y="15" type="curve" smooth="yes"/>
      <point x="374" y="15"/>
      <point x="454" y="81"/>
      <point x="454" y="191" type="curve" smooth="yes"/>
      <point x="454" y="297"/>
      <point x="367" y="357"/>
    </contour>
  </outline>
</glyph>
<glyph name="nine" format="2">
  <advance width="550"/>
  <unicode hex="0039"/>
  <outline>
    <contour>
      <point x="276" y="716" type="curve" smooth="yes"/>
      <point x="400" y="716"/>
      <point x="486" y="635"/>
      <point x="486" y="434" type="curve" smooth="yes"/>
      <point x="486" y="197"/>
      <point x="363" y="31"/>
      <point x="145" y="-11" type="curve"/>
      <point x="141" y="4" type="line"/>
      <point x="345" y="56"/>
      <point x="453" y="222"/>
      <point x="453" y="389" type="curve"/>
      <point x="428" y="307"/>
      <point x="366" y="259"/>
      <point x="261" y="259" type="curve" smooth="yes"/>
      <point x="149" y="259"/>
      <point x="64" y="347"/>
      <point x="64" y="482" type="curve" smooth="yes"/>
      <point x="64" y="627"/>
      <point x="153" y="716"/>
    </contour>
    <contour>
      <point x="274" y="693" type="curve"/>
      <point x="168" y="694"/>
      <point x="96" y="609"/>
      <point x="96" y="482" type="curve" smooth="yes"/>
      <point x="96" y="360"/>
      <point x="178" y="281"/>
      <point x="267" y="281" type="curve" smooth="yes"/>
      <point x="372" y="281"/>
      <point x="452" y="361"/>
      <point x="452" y="482" type="curve" smooth="yes"/>
      <point x="452" y="592"/>
      <point x="391" y="694"/>
    </contour>
  </outline>
</glyph>
<glyph name="A" format="2">
  <advance width="557"/>
  <unicode hex="0041"/>
  <anchor x="303" y="876" name="AccentCenter"/>
  <outline>
    <contour>
      <point x="300" y="708" type="line"/>
      <point x="524" y="22" type="line"/>
      <point x="552" y="22" type="line"/>
      <point x="552" y="0" type="line"/>
      <point x="452" y="0" type="line"/>
      <point x="452" y="22" type="line"/>
      <point x="484" y="22" type="line"/>
      <point x="425" y="214" type="line"/>
      <point x="121" y="214" type="line"/>
      <point x="62" y="22" type="line"/>
      <point x="94" y="22" type="line"/>
      <point x="94" y="0" type="line"/>
      <point x="4" y="0" type="line"/>
      <point x="4" y="22" type="line"/>
      <point x="27" y="22" type="line"/>
      <point x="249" y="675" type="line"/>
      <point x="242" y="708" type="line"/>
    </contour>
    <contour>
      <point x="276" y="672" type="line"/>
      <point x="130" y="242" type="line"/>
      <point x="418" y="242" type="line"/>
      <point x="284" y="672" type="line"/>
    </contour>
  </outline>
</glyph>
<glyph name="B" format="2">
  <advance width="594"/>
  <unicode hex="0042"/>
  <outline>
    <contour>
      <point x="42" y="708" type="line"/>
      <point x="319" y="708" type="line" smooth="yes"/>
      <point x="430" y="708"/>
      <point x="497" y="639"/>
      <point x="497" y="540" type="curve" smooth="yes"/>
      <point x="497" y="465"/>
      <point x="457" y="406"/>
      <point x="388" y="379" type="curve"/>
      <point x="469" y="364"/>
      <point x="529" y="298"/>
      <point x="529" y="197" type="curve" smooth="yes"/>
      <point x="529" y="83"/>
      <point x="448" y="0"/>
      <point x="340" y="0" type="curve" smooth="yes"/>
      <point x="40" y="0" type="line"/>
      <point x="40" y="22" type="line"/>
      <point x="100" y="22" type="line"/>
      <point x="100" y="686" type="line"/>
      <point x="42" y="686" type="line"/>
    </contour>
    <contour>
      <point x="132" y="686" type="line"/>
      <point x="132" y="389" type="line"/>
      <point x="323" y="389" type="line" smooth="yes"/>
      <point x="413" y="389"/>
      <point x="465" y="459"/>
      <point x="465" y="540" type="curve" smooth="yes"/>
      <point x="465" y="616"/>
      <point x="411" y="686"/>
      <point x="317" y="686" type="curve" smooth="yes"/>
    </contour>
    <contour>
      <point x="132" y="367" type="line"/>
      <point x="132" y="22" type="line"/>
      <point x="340" y="22" type="line" smooth="yes"/>
      <point x="431" y="22"/>
      <point x="497" y="101"/>
      <point x="497" y="202" type="curve" smooth="yes"/>
      <point x="497" y="294"/>
      <point x="442" y="367"/>
      <point x="333" y="367" type="curve" smooth="yes"/>
    </contour>
  </outline>
</glyph>
<glyph name="C" format="2">
  <advance width="591"/>
  <unicode hex="0043"/>
  <outline>
    <contour>
      <point x="354" y="716" type="curve" smooth="yes"/>
      <point x="429" y="716"/>
      <point x="491" y="695"/>
      <point x="544" y="651" type="curve"/>
      <point x="544" y="651"/>
      <point x="540" y="594"/>
      <point x="538" y="568" type="curve" smooth="yes"/>
      <point x="537" y="552"/>
      <point x="536" y="545"/>
      <point x="525" y="545" type="curve" smooth="yes"/>
      <point x="521" y="545" type="line"/>
      <point x="503" y="645" type="line"/>
      <point x="470" y="674"/>
      <point x="421" y="694"/>
      <point x="354" y="694" type="curve" smooth="yes"/>
      <point x="231" y="694"/>
      <point x="96" y="586"/>
      <point x="96" y="352" type="curve" smooth="yes"/>
      <point x="96" y="150"/>
      <point x="198" y="14"/>
      <point x="352" y="14" type="curve" smooth="yes"/>
      <point x="427" y="14"/>
      <point x="508" y="50"/>
      <point x="549" y="87" type="curve"/>
      <point x="563" y="65" type="line"/>
      <point x="516" y="30"/>
      <point x="447" y="-8"/>
      <point x="352" y="-8" type="curve" smooth="yes"/>
      <point x="170" y="-8"/>
      <point x="64" y="135"/>
      <point x="64" y="352" type="curve" smooth="yes"/>
      <point x="64" y="608"/>
      <point x="206" y="716"/>
    </contour>
  </outline>
</glyph>
<glyph name="D" format="2">
  <advance width="602"/>
  <unicode hex="0044"/>
  <outline>
    <contour>
      <point x="24" y="708" type="line"/>
      <point x="251" y="708" type="line" smooth="yes"/>
      <point x="434" y="708"/>
      <point x="538" y="585"/>
      <point x="538" y="361" type="curve" smooth="yes"/>
      <point x="538" y="124"/>
      <point x="436" y="0"/>
      <point x="247" y="0" type="curve" smooth="yes"/>
      <point x="24" y="0" type="line"/>
      <point x="24" y="22" type="line"/>
      <point x="81" y="22" type="line"/>
      <point x="81" y="686" type="line"/>
      <point x="24" y="686" type="line"/>
    </contour>
    <contour>
      <point x="114" y="686" type="line"/>
      <point x="114" y="22" type="line"/>
      <point x="249" y="22" type="line" smooth="yes"/>
      <point x="428" y="22"/>
      <point x="506" y="163"/>
      <point x="506" y="361" type="curve" smooth="yes"/>
      <point x="506" y="546"/>
      <point x="426" y="686"/>
      <point x="251" y="686" type="curve" smooth="yes"/>
    </contour>
  </outline>
</glyph>
<glyph name="E" format="2">
  <advance width="531"/>
  <unicode hex="0045"/>
  <anchor x="282" y="880" name="AccentCenter"/>
  <outline>
    <contour>
      <point x="24" y="708" type="line"/>
      <point x="471" y="708" type="line"/>
      <point x="471" y="627" type="line"/>
      <point x="447" y="627" type="line"/>
      <point x="447" y="686" type="line"/>
      <point x="121" y="686" type="line"/>
      <point x="121" y="378" type="line"/>
      <point x="393" y="378" type="line"/>
      <point x="393" y="356" type="line"/>
      <point x="121" y="356" type="line"/>
      <point x="121" y="22" type="line"/>
      <point x="469" y="22" type="line"/>
      <point x="469" y="83" type="line"/>
      <point x="491" y="83" type="line"/>
      <point x="491" y="0" type="line"/>
      <point x="24" y="0" type="line"/>
      <point x="24" y="22" type="line"/>
      <point x="89" y="22" type="line"/>
      <point x="89" y="685" type="line"/>
      <point x="24" y="685" type="line"/>
    </contour>
  </outline>
</glyph>
<glyph name="F" format="2">
  <advance width="503"/>
  <unicode hex="0046"/>
  <outline>
    <contour>
      <point x="24" y="708" type="line"/>
      <point x="471" y="708" type="line"/>
      <point x="471" y="627" type="line"/>
      <point x="447" y="627" type="line"/>
      <point x="447" y="686" type="line"/>
      <point x="121" y="686" type="line"/>
      <point x="121" y="378" type="line"/>
      <point x="393" y="378" type="line"/>
      <point x="393" y="356" type="line"/>
      <point x="121" y="356" type="line"/>
      <point x="121" y="22" type="line"/>
      <point x="199" y="22" type="line"/>
      <point x="199" y="0" type="line"/>
      <point x="24" y="0" type="line"/>
      <point x="24" y="22" type="line"/>
      <point x="89" y="22" type="line"/>
      <point x="89" y="685" type="line"/>
      <point x="24" y="685" type="line"/>
    </contour>
  </outline>
</glyph>
<glyph name="G" format="2">
  <advance width="622"/>
  <unicode hex="0047"/>
  <outline>
    <contour>
      <point x="357" y="716" type="curve" smooth="yes"/>
      <point x="435" y="716"/>
      <point x="493" y="699"/>
      <point x="543" y="663" type="curve"/>
      <point x="543" y="557" type="line"/>
      <point x="518" y="557" type="line"/>
      <point x="513.1279907226562" y="648.59326171875" type="line"/>
      <point x="459.8945007324219" y="678.4500122070312"/>
      <point x="415.3022766113281" y="690"/>
      <point x="353" y="690" type="curve" smooth="yes"/>
      <point x="182" y="690"/>
      <point x="96" y="553"/>
      <point x="96" y="352" type="curve" smooth="yes"/>
      <point x="96" y="112"/>
      <point x="221" y="18"/>
      <point x="380" y="18" type="curve" smooth="yes"/>
      <point x="434" y="18"/>
      <point x="481" y="27"/>
      <point x="510" y="37" type="curve"/>
      <point x="510" y="360" type="line"/>
      <point x="328" y="360" type="line"/>
      <point x="328" y="386" type="line"/>
      <point x="582" y="386" type="line"/>
      <point x="577" y="360" type="line"/>
      <point x="543" y="360" type="line"/>
      <point x="543" y="25" type="line"/>
      <point x="487" y="5"/>
      <point x="453" y="-8"/>
      <point x="373" y="-8" type="curve" smooth="yes"/>
      <point x="197" y="-8"/>
      <point x="64" y="91"/>
      <point x="64" y="352" type="curve" smooth="yes"/>
      <point x="64" y="571"/>
      <point x="165" y="716"/>
    </contour>
  </outline>
</glyph>
<glyph name="H" format="2">
  <advance width="616"/>
  <unicode hex="0048"/>
  <outline>
    <contour>
      <point x="220" y="708" type="line"/>
      <point x="220" y="682" type="line"/>
      <point x="146" y="682" type="line"/>
      <point x="146" y="392" type="line"/>
      <point x="470" y="392" type="line"/>
      <point x="470" y="682" type="line"/>
      <point x="396" y="682" type="line"/>
      <point x="396" y="708" type="line"/>
      <point x="576" y="708" type="line"/>
      <point x="576" y="682" type="line"/>
      <point x="502" y="682" type="line"/>
      <point x="502" y="26" type="line"/>
      <point x="576" y="26" type="line"/>
      <point x="576" y="0" type="line"/>
      <point x="396" y="0" type="line"/>
      <point x="396" y="26" type="line"/>
      <point x="470" y="26" type="line"/>
      <point x="470" y="366" type="line"/>
      <point x="146" y="366" type="line"/>
      <point x="146" y="26" type="line"/>
      <point x="220" y="26" type="line"/>
      <point x="220" y="0" type="line"/>
      <point x="40" y="0" type="line"/>
      <point x="40" y="26" type="line"/>
      <point x="114" y="26" type="line"/>
      <point x="114" y="682" type="line"/>
      <point x="40" y="682" type="line"/>
      <point x="40" y="708" type="line"/>
    </contour>
  </outline>
</glyph>
<glyph name="I" format="2">
  <advance width="260"/>
  <unicode hex="0049"/>
  <anchor x="132" y="876" name="AccentCenter"/>
  <outline>
    <contour>
      <point x="40" y="708" type="line"/>
      <point x="220" y="708" type="line"/>
      <point x="220" y="682" type="line"/>
      <point x="146" y="682" type="line"/>
      <point x="146" y="26" type="line"/>
      <point x="220" y="26" type="line"/>
      <point x="220" y="0" type="line"/>
      <point x="40" y="0" type="line"/>
      <point x="40" y="26" type="line"/>
      <point x="114" y="26" type="line"/>
      <point x="114" y="682" type="line"/>
      <point x="40" y="682" type="line"/>
    </contour>
  </outline>
</glyph>
<glyph name="J" format="2">
  <advance width="350"/>
  <unicode hex="004A"/>
  <outline>
    <contour>
      <point x="83" y="708" type="line"/>
      <point x="278" y="708" type="line"/>
      <point x="278" y="164" type="line" smooth="yes"/>
      <point x="278" y="88"/>
      <point x="244" y="-8"/>
      <point x="116" y="-8" type="curve" smooth="yes"/>
      <point x="85" y="-8"/>
      <point x="58" y="-5"/>
      <point x="30" y="0" type="curve"/>
      <point x="34" y="21" type="line"/>
      <point x="107" y="16" type="line" smooth="yes"/>
      <point x="179" y="12"/>
      <point x="246" y="41"/>
      <point x="246" y="148" type="curve" smooth="yes"/>
      <point x="246" y="686" type="line"/>
      <point x="83" y="686" type="line"/>
    </contour>
  </outline>
</glyph>
<glyph name="K" format="2">
  <advance width="584"/>
  <unicode hex="004B"/>
  <outline>
    <contour>
      <point x="40" y="708" type="line"/>
      <point x="219" y="708" type="line"/>
      <point x="219" y="682" type="line"/>
      <point x="145" y="682" type="line"/>
      <point x="145" y="358" type="line"/>
      <point x="455" y="682" type="line"/>
      <point x="390" y="682" type="line"/>
      <point x="390" y="708" type="line"/>
      <point x="533" y="708" type="line"/>
      <point x="533" y="682" type="line"/>
      <point x="489" y="682" type="line"/>
      <point x="175" y="361" type="line"/>
      <point x="491" y="26" type="line"/>
      <point x="552" y="26" type="line"/>
      <point x="552" y="0" type="line"/>
      <point x="462" y="0" type="line"/>
      <point x="146" y="344" type="line"/>
      <point x="145" y="344" type="line"/>
      <point x="145" y="26" type="line"/>
      <point x="219" y="26" type="line"/>
      <point x="219" y="0" type="line"/>
      <point x="40" y="0" type="line"/>
      <point x="40" y="26" type="line"/>
      <point x="114" y="26" type="line"/>
      <point x="114" y="682" type="line"/>
      <point x="40" y="682" type="line"/>
    </contour>
  </outline>
</glyph>
<glyph name="L" format="2">
  <advance width="470"/>
  <unicode hex="004C"/>
  <outline>
    <contour>
      <point x="40" y="708" type="line"/>
      <point x="220" y="708" type="line"/>
      <point x="220" y="682" type="line"/>
      <point x="146" y="682" type="line"/>
      <point x="146" y="26" type="line"/>
      <point x="444" y="26" type="line"/>
      <point x="444" y="115" type="line"/>
      <point x="470" y="115" type="line"/>
      <point x="470" y="0" type="line"/>
      <point x="40" y="0" type="line"/>
      <point x="40" y="26" type="line"/>
      <point x="114" y="26" type="line"/>
      <point x="114" y="682" type="line"/>
      <point x="40" y="682" type="line"/>
    </contour>
  </outline>
</glyph>
<glyph name="M" format="2">
  <advance width="705"/>
  <unicode hex="004D"/>
  <outline>
    <contour>
      <point x="101" y="708" type="line"/>
      <point x="136" y="708" type="line"/>
      <point x="360" y="217" type="line"/>
      <point x="568" y="708" type="line"/>
      <point x="604" y="708" type="line"/>
      <point x="604" y="0" type="line"/>
      <point x="572" y="0" type="line"/>
      <point x="572" y="647" type="line"/>
      <point x="381" y="192" type="line"/>
      <point x="337" y="192" type="line"/>
      <point x="133" y="637" type="line"/>
      <point x="133" y="0" type="line"/>
      <point x="101" y="0" type="line"/>
    </contour>
  </outline>
</glyph>
<glyph name="N" format="2">
  <advance width="681"/>
  <unicode hex="004E"/>
  <outline>
    <contour>
      <point x="40" y="708" type="line"/>
      <point x="145" y="708" type="line"/>
      <point x="535" y="65" type="line"/>
      <point x="535" y="686" type="line"/>
      <point x="461" y="686" type="line"/>
      <point x="461" y="708" type="line"/>
      <point x="641" y="708" type="line"/>
      <point x="641" y="686" type="line"/>
      <point x="567" y="686" type="line"/>
      <point x="567" y="13" type="line"/>
      <point x="537" y="0" type="line"/>
      <point x="146" y="646" type="line"/>
      <point x="146" y="22" type="line"/>
      <point x="220" y="22" type="line"/>
      <point x="220" y="0" type="line"/>
      <point x="40" y="0" type="line"/>
      <point x="40" y="22" type="line"/>
      <point x="114" y="22" type="line"/>
      <point x="114" y="686" type="line"/>
      <point x="40" y="686" type="line"/>
    </contour>
  </outline>
</glyph>
<glyph name="O" format="2">
  <advance width="672"/>
  <unicode hex="004F"/>
  <anchor x="339" y="876" name="AccentCenter"/>
  <outline>
    <contour>
      <point x="338" y="716" type="curve" smooth="yes"/>
      <point x="499" y="716"/>
      <point x="608" y="579"/>
      <point x="608" y="354" type="curve" smooth="yes"/>
      <point x="608" y="128"/>
      <point x="499" y="-8"/>
      <point x="338" y="-8" type="curve" smooth="yes"/>
      <point x="176" y="-8"/>
      <point x="64" y="128"/>
      <point x="64" y="354" type="curve" smooth="yes"/>
      <point x="64" y="579"/>
      <point x="176" y="716"/>
    </contour>
    <contour>
      <point x="338" y="690" type="curve" smooth="yes"/>
      <point x="192" y="690"/>
      <point x="96" y="552"/>
      <point x="96" y="354" type="curve" smooth="yes"/>
      <point x="96" y="155"/>
      <point x="192" y="18"/>
      <point x="338" y="18" type="curve" smooth="yes"/>
      <point x="483" y="18"/>
      <point x="576" y="151"/>
      <point x="576" y="354" type="curve" smooth="yes"/>
      <point x="576" y="557"/>
      <point x="483" y="690"/>
    </contour>
  </outline>
</glyph>
<glyph name="P" format="2">
  <advance width="583"/>
  <unicode hex="0050"/>
  <outline>
    <contour>
      <point x="53" y="708" type="line"/>
      <point x="315" y="708" type="line" smooth="yes"/>
      <point x="426" y="708"/>
      <point x="521" y="638"/>
      <point x="521" y="505" type="curve" smooth="yes"/>
      <point x="521" y="353"/>
      <point x="427" y="285"/>
      <point x="298" y="285" type="curve" smooth="yes"/>
      <point x="133" y="285" type="line"/>
      <point x="133" y="22" type="line"/>
      <point x="181" y="22" type="line"/>
      <point x="181" y="0" type="line"/>
      <point x="53" y="0" type="line"/>
      <point x="53" y="22" type="line"/>
      <point x="101" y="22" type="line"/>
      <point x="101" y="686" type="line"/>
      <point x="53" y="686" type="line"/>
    </contour>
    <contour>
      <point x="133" y="686" type="line"/>
      <point x="133" y="307" type="line"/>
      <point x="298" y="307" type="line" smooth="yes"/>
      <point x="403" y="307"/>
      <point x="489" y="360"/>
      <point x="489" y="505" type="curve" smooth="yes"/>
      <point x="489" y="626"/>
      <point x="400" y="686"/>
      <point x="315" y="686" type="curve" smooth="yes"/>
    </contour>
  </outline>
</glyph>
<glyph name="Q" format="2">
  <advance width="672"/>
  <unicode hex="0051"/>
  <outline>
    <contour>
      <point x="343" y="716" type="curve" smooth="yes"/>
      <point x="504" y="716"/>
      <point x="608" y="579"/>
      <point x="608" y="354" type="curve" smooth="yes"/>
      <point x="608" y="139"/>
      <point x="513" y="8"/>
      <point x="367" y="-7" type="curve"/>
      <point x="616" y="-103" type="line"/>
      <point x="609" y="-140" type="line"/>
      <point x="284" y="-4" type="line" smooth="yes"/>
      <point x="139" y="57"/>
      <point x="64" y="156.89300537109375"/>
      <point x="64" y="354" type="curve" smooth="yes"/>
      <point x="64" y="579"/>
      <point x="181" y="716"/>
    </contour>
    <contour>
      <point x="343" y="690" type="curve" smooth="yes"/>
      <point x="197" y="690"/>
      <point x="96" y="552"/>
      <point x="96" y="354" type="curve" smooth="yes"/>
      <point x="96" y="155"/>
      <point x="197" y="18"/>
      <point x="343" y="18" type="curve" smooth="yes"/>
      <point x="488" y="18"/>
      <point x="576" y="151"/>
      <point x="576" y="354" type="curve" smooth="yes"/>
      <point x="576" y="557"/>
      <point x="488" y="690"/>
    </contour>
  </outline>
</glyph>
<glyph name="R" format="2">
  <advance width="586"/>
  <unicode hex="0052"/>
  <outline>
    <contour>
      <point x="34" y="708" type="line"/>
      <point x="317" y="708" type="line" smooth="yes"/>
      <point x="443" y="708"/>
      <point x="520" y="643"/>
      <point x="520" y="511" type="curve" smooth="yes"/>
      <point x="520" y="385"/>
      <point x="436" y="328"/>
      <point x="344" y="322" type="curve"/>
      <point x="501" y="22" type="line"/>
      <point x="558" y="22" type="line"/>
      <point x="558" y="0" type="line"/>
      <point x="491" y="0" type="line"/>
      <point x="459" y="32" type="line"/>
      <point x="307" y="322" type="line"/>
      <point x="132" y="322" type="line"/>
      <point x="132" y="22" type="line"/>
      <point x="201" y="22" type="line"/>
      <point x="201" y="0" type="line"/>
      <point x="34" y="0" type="line"/>
      <point x="34" y="22" type="line"/>
      <point x="100" y="22" type="line"/>
      <point x="100" y="686" type="line"/>
      <point x="34" y="686" type="line"/>
    </contour>
    <contour>
      <point x="132" y="344" type="line"/>
      <point x="298" y="344" type="line" smooth="yes"/>
      <point x="410" y="344"/>
      <point x="488" y="390"/>
      <point x="488" y="513" type="curve" smooth="yes"/>
      <point x="488" y="626"/>
      <point x="415" y="686"/>
      <point x="317" y="686" type="curve" smooth="yes"/>
      <point x="132" y="686" type="line"/>
    </contour>
  </outline>
</glyph>
<glyph name="S" format="2">
  <advance width="565"/>
  <unicode hex="0053"/>
  <outline>
    <contour>
      <point x="277" y="716" type="curve" smooth="yes"/>
      <point x="366" y="716"/>
      <point x="425" y="685"/>
      <point x="479" y="642" type="curve"/>
      <point x="450" y="526" type="line"/>
      <point x="420" y="534" type="line"/>
      <point x="444" y="633" type="line"/>
      <point x="396" y="667"/>
      <point x="352" y="690"/>
      <point x="274" y="690" type="curve" smooth="yes"/>
      <point x="161" y="690"/>
      <point x="100" y="627"/>
      <point x="100" y="538" type="curve" smooth="yes"/>
      <point x="100" y="471"/>
      <point x="120" y="420"/>
      <point x="231" y="388" type="curve" smooth="yes"/>
      <point x="344" y="356" type="line" smooth="yes"/>
      <point x="432" y="330"/>
      <point x="500" y="276"/>
      <point x="500" y="170" type="curve" smooth="yes"/>
      <point x="500" y="61"/>
      <point x="417" y="-9"/>
      <point x="282" y="-9" type="curve" smooth="yes"/>
      <point x="176" y="-9"/>
      <point x="123" y="13"/>
      <point x="64" y="42" type="curve"/>
      <point x="64" y="180" type="line"/>
      <point x="96" y="180" type="line"/>
      <point x="96" y="57" type="line"/>
      <point x="152" y="28"/>
      <point x="217" y="17"/>
      <point x="284" y="17" type="curve" smooth="yes"/>
      <point x="398" y="16"/>
      <point x="468" y="74"/>
      <point x="468" y="173" type="curve" smooth="yes"/>
      <point x="468" y="259"/>
      <point x="412" y="305"/>
      <point x="334" y="327" type="curve" smooth="yes"/>
      <point x="222" y="358" type="line" smooth="yes"/>
      <point x="108" y="390"/>
      <point x="68" y="457"/>
      <point x="68" y="537" type="curve" smooth="yes"/>
      <point x="68" y="641"/>
      <point x="140" y="716"/>
    </contour>
  </outline>
</glyph>
<glyph name="T" format="2">
  <advance width="534"/>
  <unicode hex="0054"/>
  <outline>
    <contour>
      <point x="40" y="708" type="line"/>
      <point x="494" y="708" type="line"/>
      <point x="494" y="582" type="line"/>
      <point x="468" y="582" type="line"/>
      <point x="468" y="682" type="line"/>
      <point x="286" y="682" type="line"/>
      <point x="286" y="26" type="line"/>
      <point x="360" y="26" type="line"/>
      <point x="360" y="0" type="line"/>
      <point x="180" y="0" type="line"/>
      <point x="180" y="26" type="line"/>
      <point x="254" y="26" type="line"/>
      <point x="254" y="682" type="line"/>
      <point x="66" y="682" type="line"/>
      <point x="66" y="582" type="line"/>
      <point x="40" y="582" type="line"/>
    </contour>
  </outline>
</glyph>
<glyph name="U" format="2">
  <advance width="653"/>
  <unicode hex="0055"/>
  <anchor x="278.8" y="880" name="AccentCenter"/>
  <outline>
    <contour>
      <point x="40" y="708" type="line"/>
      <point x="220" y="708" type="line"/>
      <point x="220" y="682" type="line"/>
      <point x="146" y="682" type="line"/>
      <point x="146" y="229" type="line" smooth="yes"/>
      <point x="146" y="73"/>
      <point x="228" y="18"/>
      <point x="330" y="18" type="curve" smooth="yes"/>
      <point x="431" y="18"/>
      <point x="513" y="73"/>
      <point x="513" y="229" type="curve" smooth="yes"/>
      <point x="513" y="682" type="line"/>
      <point x="439" y="682" type="line"/>
      <point x="439" y="708" type="line"/>
      <point x="613" y="708" type="line"/>
      <point x="613" y="682" type="line"/>
      <point x="539" y="682" type="line"/>
      <point x="539" y="229" type="line" smooth="yes"/>
      <point x="539" y="70"/>
      <point x="455" y="-8"/>
      <point x="326" y="-8" type="curve" smooth="yes"/>
      <point x="196" y="-8"/>
      <point x="114" y="68"/>
      <point x="114" y="229" type="curve" smooth="yes"/>
      <point x="114" y="682" type="line"/>
      <point x="40" y="682" type="line"/>
    </contour>
  </outline>
</glyph>
<glyph name="V" format="2">
  <advance width="608"/>
  <unicode hex="0056"/>
  <outline>
    <contour>
      <point x="4" y="708" type="line"/>
      <point x="163" y="708" type="line"/>
      <point x="163" y="682" type="line"/>
      <point x="100" y="682" type="line"/>
      <point x="321" y="32" type="line"/>
      <point x="522" y="682" type="line"/>
      <point x="457" y="682" type="line"/>
      <point x="457" y="708" type="line"/>
      <point x="608" y="708" type="line"/>
      <point x="608" y="682" type="line"/>
      <point x="550" y="682" type="line"/>
      <point x="338" y="0" type="line"/>
      <point x="296" y="0" type="line"/>
      <point x="65" y="682" type="line"/>
      <point x="4" y="682" type="line"/>
    </contour>
  </outline>
</glyph>
<glyph name="W" format="2">
  <advance width="870"/>
  <unicode hex="0057"/>
  <outline>
    <contour>
      <point x="20" y="708" type="line"/>
      <point x="179" y="708" type="line"/>
      <point x="179" y="682" type="line"/>
      <point x="116" y="682" type="line"/>
      <point x="287" y="32" type="line"/>
      <point x="432" y="708" type="line"/>
      <point x="460" y="708" type="line"/>
      <point x="631" y="32" type="line"/>
      <point x="764" y="682" type="line"/>
      <point x="699" y="682" type="line"/>
      <point x="699" y="708" type="line"/>
      <point x="850" y="708" type="line"/>
      <point x="850" y="682" type="line"/>
      <point x="792" y="682" type="line"/>
      <point x="648" y="0" type="line"/>
      <point x="606" y="0" type="line"/>
      <point x="444" y="647" type="line"/>
      <point x="304" y="0" type="line"/>
      <point x="262" y="0" type="line"/>
      <point x="81" y="682" type="line"/>
      <point x="20" y="682" type="line"/>
    </contour>
  </outline>
</glyph>
<glyph name="X" format="2">
  <advance width="582"/>
  <unicode hex="0058"/>
  <outline>
    <contour>
      <point x="20" y="708" type="line"/>
      <point x="20" y="682" type="line"/>
      <point x="75.08474731445312" y="682" type="line"/>
      <point x="271" y="353" type="line"/>
      <point x="77.01129913330078" y="26" type="line"/>
      <point x="20" y="26" type="line"/>
      <point x="20" y="0" type="line"/>
      <point x="184" y="0" type="line"/>
      <point x="184" y="26" type="line"/>
      <point x="113.01129913330078" y="26" type="line"/>
      <point x="289" y="324" type="line"/>
      <point x="467" y="26" type="line"/>
      <point x="398" y="26" type="line"/>
      <point x="398" y="0" type="line"/>
      <point x="562" y="0" type="line"/>
      <point x="562" y="26" type="line"/>
      <point x="507" y="26" type="line"/>
      <point x="308" y="356" type="line"/>
      <point x="503" y="682" type="line"/>
      <point x="562" y="682" type="line"/>
      <point x="562" y="708" type="line"/>
      <point x="398" y="708" type="line"/>
      <point x="398" y="682" type="line"/>
      <point x="467" y="682" type="line"/>
      <point x="290" y="386" type="line"/>
      <point x="115.08474731445312" y="682" type="line"/>
      <point x="184" y="682" type="line"/>
      <point x="184" y="708" type="line"/>
    </contour>
  </outline>
</glyph>
<glyph name="Y" format="2">
  <advance width="564"/>
  <unicode hex="0059"/>
  <anchor x="282.8" y="880" name="AccentCenter"/>
  <outline>
    <contour>
      <point x="4" y="708" type="line"/>
      <point x="168" y="708" type="line"/>
      <point x="168" y="682" type="line"/>
      <point x="99.10498809814453" y="682" type="line"/>
      <point x="283" y="346" type="line"/>
      <point x="465" y="682" type="line"/>
      <point x="396" y="682" type="line"/>
      <point x="396" y="708" type="line"/>
      <point x="560" y="708" type="line"/>
      <point x="560" y="682" type="line"/>
      <point x="501.03045654296875" y="682" type="line"/>
      <point x="297" y="313" type="line"/>
      <point x="297" y="26" type="line"/>
      <point x="371" y="26" type="line"/>
      <point x="371" y="0" type="line"/>
      <point x="191" y="0" type="line"/>
      <point x="191" y="26" type="line"/>
      <point x="265" y="26" type="line"/>
      <point x="265" y="313" type="line"/>
      <point x="59.09223175048828" y="682" type="line"/>
      <point x="4" y="682" type="line"/>
    </contour>
  </outline>
</glyph>
<glyph name="Z" format="2">
  <advance width="530"/>
  <unicode hex="005A"/>
  <outline>
    <contour>
      <point x="44" y="708" type="line"/>
      <point x="490" y="708" type="line"/>
      <point x="490" y="682" type="line"/>
      <point x="78" y="28" type="line"/>
      <point x="464" y="28" type="line"/>
      <point x="464" y="78" type="line"/>
      <point x="490" y="78" type="line"/>
      <point x="490" y="0" type="line"/>
      <point x="40" y="0" type="line"/>
      <point x="40" y="28" type="line"/>
      <point x="451" y="682" type="line"/>
      <point x="70" y="682" type="line"/>
      <point x="70" y="632" type="line"/>
      <point x="44" y="632" type="line"/>
    </contour>
  </outline>
</glyph>
<glyph name="bracketleft" format="2">
  <advance width="309"/>
  <unicode hex="005B"/>
  <outline>
    <contour>
      <point x="64" y="819" type="line"/>
      <point x="245" y="819" type="line"/>
      <point x="245" y="793" type="line"/>
      <point x="96" y="793" type="line"/>
      <point x="96" y="-38" type="line"/>
      <point x="245" y="-38" type="line"/>
      <point x="245" y="-64" type="line"/>
      <point x="64" y="-64" type="line"/>
    </contour>
  </outline>
</glyph>
<glyph name="bracketright" format="2">
  <advance width="309"/>
  <unicode hex="005D"/>
  <outline>
    <contour>
      <point x="64" y="819" type="line"/>
      <point x="245" y="819" type="line"/>
      <point x="245" y="-64" type="line"/>
      <point x="64" y="-64" type="line"/>
      <point x="64" y="-38" type="line"/>
      <point x="213" y="-38" type="line"/>
      <point x="213" y="791" type="line"/>
      <point x="64" y="791" type="line"/>
    </contour>
  </outline>
</glyph>
<glyph name="a" format="2">
  <advance width="498"/>
  <unicode hex="0061"/>
  <anchor x="267" y="687" name="AccentCenter"/>
  <anchor x="257" y="687" name="Ring"/>
  <outline>
    <contour>
      <point x="367" y="270" type="line"/>
      <point x="237" y="270" type="line" smooth="yes"/>
      <point x="142" y="270"/>
      <point x="74" y="230"/>
      <point x="74" y="146" type="curve" smooth="yes"/>
      <point x="74" y="61"/>
      <point x="122" y="18"/>
      <point x="209" y="18" type="curve" smooth="yes"/>
      <point x="285" y="18"/>
      <point x="334" y="63"/>
      <point x="367" y="106" type="curve"/>
    </contour>
    <contour>
      <point x="221" y="528" type="curve" smooth="yes"/>
      <point x="335" y="528"/>
      <point x="400" y="455"/>
      <point x="400" y="349" type="curve" smooth="yes"/>
      <point x="400" y="16" type="line"/>
      <point x="482" y="32" type="line"/>
      <point x="488" y="5" type="line"/>
      <point x="405" y="-8" type="line"/>
      <point x="372" y="-8"/>
      <point x="367" y="25"/>
      <point x="367" y="70" type="curve"/>
      <point x="341" y="37"/>
      <point x="286" y="-8"/>
      <point x="206" y="-8" type="curve" smooth="yes"/>
      <point x="106" y="-8"/>
      <point x="42" y="47"/>
      <point x="42" y="146" type="curve" smooth="yes"/>
      <point x="42" y="243"/>
      <point x="122" y="296"/>
      <point x="233" y="296" type="curve" smooth="yes"/>
      <point x="367" y="296" type="line"/>
      <point x="367" y="356" type="line" smooth="yes"/>
      <point x="367" y="431"/>
      <point x="328" y="502"/>
      <point x="221" y="502" type="curve" smooth="yes"/>
      <point x="165" y="502"/>
      <point x="125" y="485"/>
      <point x="79" y="461" type="curve"/>
      <point x="71" y="485" type="line"/>
      <point x="118" y="508"/>
      <point x="163" y="528"/>
    </contour>
  </outline>
</glyph>
<glyph name="b" format="2">
  <advance width="584"/>
  <unicode hex="0062"/>
  <outline>
    <contour>
      <point x="42" y="708" type="line"/>
      <point x="146" y="708" type="line"/>
      <point x="146" y="470" type="line"/>
      <point x="175" y="496"/>
      <point x="224" y="528"/>
      <point x="311" y="528" type="curve" smooth="yes"/>
      <point x="436" y="528"/>
      <point x="520" y="437"/>
      <point x="520" y="269" type="curve" smooth="yes"/>
      <point x="520" y="113"/>
      <point x="449" y="-8"/>
      <point x="289" y="-8" type="curve" smooth="yes"/>
      <point x="185.02068265462378" y="-8"/>
      <point x="157" y="10"/>
      <point x="114" y="25" type="curve"/>
      <point x="114" y="682" type="line"/>
      <point x="42" y="682" type="line"/>
    </contour>
    <contour>
      <point x="303" y="502" type="curve" smooth="yes"/>
      <point x="226" y="502"/>
      <point x="178" y="472"/>
      <point x="146" y="439" type="curve"/>
      <point x="146" y="45" type="line"/>
      <point x="184" y="29"/>
      <point x="214" y="18"/>
      <point x="288" y="18" type="curve" smooth="yes"/>
      <point x="429" y="18"/>
      <point x="488" y="126"/>
      <point x="488" y="267" type="curve" smooth="yes"/>
      <point x="488" y="422"/>
      <point x="425" y="502"/>
    </contour>
  </outline>
</glyph>
<glyph name="c" format="2">
  <advance width="475"/>
  <unicode hex="0063"/>
  <outline>
    <contour>
      <point x="274" y="528" type="curve" smooth="yes"/>
      <point x="342" y="528"/>
      <point x="377" y="519"/>
      <point x="436" y="484" type="curve"/>
      <point x="436" y="484"/>
      <point x="430" y="422"/>
      <point x="427" y="396" type="curve" smooth="yes"/>
      <point x="425" y="380"/>
      <point x="419" y="373"/>
      <point x="405" y="373" type="curve" smooth="yes"/>
      <point x="403" y="373" type="line"/>
      <point x="399" y="476" type="line"/>
      <point x="366" y="496"/>
      <point x="328" y="502"/>
      <point x="276" y="502" type="curve" smooth="yes"/>
      <point x="165" y="502"/>
      <point x="88" y="410"/>
      <point x="88" y="260" type="curve" smooth="yes"/>
      <point x="88" y="108"/>
      <point x="169" y="18"/>
      <point x="288" y="18" type="curve" smooth="yes"/>
      <point x="342" y="18"/>
      <point x="383" y="28"/>
      <point x="434" y="62" type="curve"/>
      <point x="447" y="39" type="line"/>
      <point x="384" y="0"/>
      <point x="353" y="-8"/>
      <point x="287" y="-8" type="curve" smooth="yes"/>
      <point x="146" y="-8"/>
      <point x="56" y="107"/>
      <point x="56" y="260" type="curve" smooth="yes"/>
      <point x="56" y="418"/>
      <point x="136" y="528"/>
    </contour>
  </outline>
</glyph>
<glyph name="d" format="2">
  <advance width="584"/>
  <unicode hex="0064"/>
  <outline>
    <contour>
      <point x="368" y="716" type="line"/>
      <point x="364" y="690" type="line"/>
      <point x="438" y="690" type="line"/>
      <point x="438" y="438" type="line"/>
      <point x="410" y="483"/>
      <point x="368" y="528"/>
      <point x="273" y="528" type="curve" smooth="yes"/>
      <point x="156" y="528"/>
      <point x="64" y="433"/>
      <point x="64" y="265" type="curve" smooth="yes"/>
      <point x="64" y="109"/>
      <point x="135" y="-8"/>
      <point x="274" y="-8" type="curve" smooth="yes"/>
      <point x="370" y="-8"/>
      <point x="415" y="41"/>
      <point x="439" y="86" type="curve"/>
      <point x="446" y="0" type="line"/>
      <point x="544" y="0" type="line"/>
      <point x="544" y="26" type="line"/>
      <point x="470" y="26" type="line"/>
      <point x="470" y="716" type="line"/>
    </contour>
    <contour>
      <point x="281" y="502" type="curve" smooth="yes"/>
      <point x="366" y="502"/>
      <point x="428" y="443"/>
      <point x="438" y="383" type="curve"/>
      <point x="438" y="138" type="line"/>
      <point x="425" y="93"/>
      <point x="370" y="18"/>
      <point x="274" y="18" type="curve" smooth="yes"/>
      <point x="155" y="18"/>
      <point x="96" y="122"/>
      <point x="96" y="263" type="curve" smooth="yes"/>
      <point x="96" y="418"/>
      <point x="167" y="502"/>
    </contour>
  </outline>
</glyph>
<glyph name="e" format="2">
  <advance width="507"/>
  <unicode hex="0065"/>
  <anchor x="274" y="687" name="AccentCenter"/>
  <outline>
    <contour>
      <point x="260" y="528" type="curve" smooth="yes"/>
      <point x="373" y="528"/>
      <point x="451" y="440"/>
      <point x="451" y="302" type="curve" smooth="yes"/>
      <point x="451" y="287"/>
      <point x="448.229" y="262.831"/>
      <point x="447" y="257" type="curve"/>
      <point x="90" y="257" type="line"/>
      <point x="90" y="117"/>
      <point x="163" y="18"/>
      <point x="284" y="18" type="curve" smooth="yes"/>
      <point x="353" y="18"/>
      <point x="390" y="37"/>
      <point x="433" y="64" type="curve"/>
      <point x="446" y="40" type="line"/>
      <point x="405" y="19"/>
      <point x="375" y="-8"/>
      <point x="282" y="-8" type="curve" smooth="yes"/>
      <point x="145" y="-8"/>
      <point x="56" y="91"/>
      <point x="56" y="268" type="curve" smooth="yes"/>
      <point x="56" y="433"/>
      <point x="134" y="528"/>
    </contour>
    <contour>
      <point x="260" y="502" type="curve" smooth="yes"/>
      <point x="158" y="502"/>
      <point x="90" y="422"/>
      <point x="90" y="283" type="curve"/>
      <point x="419" y="283" type="line"/>
      <point x="419" y="322" type="line" smooth="yes"/>
      <point x="419" y="425"/>
      <point x="351" y="502"/>
    </contour>
  </outline>
</glyph>
<glyph name="f" format="2">
  <advance width="290"/>
  <unicode hex="0066"/>
  <outline>
    <contour>
      <point x="316" y="704" type="line"/>
      <point x="316" y="713" type="line"/>
      <point x="285" y="725"/>
      <point x="266" y="731"/>
      <point x="205" y="731" type="curve" smooth="yes"/>
      <point x="150" y="731"/>
      <point x="124" y="694"/>
      <point x="124" y="645" type="curve" smooth="yes"/>
      <point x="124" y="520" type="line"/>
      <point x="24" y="513" type="line"/>
      <point x="24" y="494" type="line"/>
      <point x="124" y="494" type="line"/>
      <point x="124" y="26" type="line"/>
      <point x="46" y="26" type="line"/>
      <point x="46" y="0" type="line"/>
      <point x="239" y="0" type="line"/>
      <point x="239" y="26" type="line"/>
      <point x="156" y="26" type="line"/>
      <point x="156" y="494" type="line"/>
      <point x="277" y="494" type="line"/>
      <point x="277" y="520" type="line"/>
      <point x="156" y="520" type="line"/>
      <point x="157" y="697" type="line"/>
    </contour>
  </outline>
</glyph>
<glyph name="g" format="2">
  <advance width="535"/>
  <unicode hex="0067"/>
  <outline>
    <contour>
      <point x="246" y="528" type="curve" smooth="yes"/>
      <point x="304" y="528"/>
      <point x="341" y="508"/>
      <point x="374" y="471" type="curve"/>
      <point x="404" y="497" type="line"/>
      <point x="497" y="530" type="line"/>
      <point x="497" y="499" type="line"/>
      <point x="382" y="461" type="line"/>
      <point x="398" y="438"/>
      <point x="414" y="409"/>
      <point x="414" y="359" type="curve" smooth="yes"/>
      <point x="414" y="270"/>
      <point x="346" y="202"/>
      <point x="250" y="202" type="curve" smooth="yes"/>
      <point x="234" y="202"/>
      <point x="204" y="205"/>
      <point x="179" y="211" type="curve"/>
      <point x="141" y="203"/>
      <point x="87" y="183"/>
      <point x="87" y="149" type="curve" smooth="yes"/>
      <point x="87" y="118"/>
      <point x="110" y="108"/>
      <point x="160" y="102" type="curve" smooth="yes"/>
      <point x="377" y="76" type="line" smooth="yes"/>
      <point x="445" y="68"/>
      <point x="497" y="28"/>
      <point x="497" y="-52" type="curve" smooth="yes"/>
      <point x="497" y="-129"/>
      <point x="426" y="-192"/>
      <point x="275" y="-192" type="curve" smooth="yes"/>
      <point x="122" y="-192"/>
      <point x="37" y="-132"/>
      <point x="37" y="-24" type="curve"/>
      <point x="164" y="72" type="line"/>
      <point x="141" y="75" type="line" smooth="yes"/>
      <point x="84" y="82"/>
      <point x="52" y="111"/>
      <point x="52" y="141" type="curve" smooth="yes"/>
      <point x="52" y="178"/>
      <point x="65" y="198"/>
      <point x="145" y="222" type="curve"/>
      <point x="97" y="249"/>
      <point x="65" y="283"/>
      <point x="65" y="359" type="curve" smooth="yes"/>
      <point x="65" y="469"/>
      <point x="138" y="528"/>
    </contour>
    <contour>
      <point x="68" y="-33" type="line"/>
      <point x="68" y="-98"/>
      <point x="133" y="-166"/>
      <point x="281" y="-166" type="curve" smooth="yes"/>
      <point x="389" y="-166"/>
      <point x="464" y="-125"/>
      <point x="464" y="-53" type="curve" smooth="yes"/>
      <point x="464" y="8"/>
      <point x="432" y="42"/>
      <point x="362" y="50" type="curve" smooth="yes"/>
      <point x="195" y="69" type="line"/>
    </contour>
    <contour>
      <point x="246" y="502" type="curve" smooth="yes"/>
      <point x="160" y="502"/>
      <point x="97" y="456"/>
      <point x="97" y="359" type="curve" smooth="yes"/>
      <point x="97" y="265"/>
      <point x="164" y="228"/>
      <point x="246" y="228" type="curve" smooth="yes"/>
      <point x="325" y="228"/>
      <point x="382" y="285"/>
      <point x="382" y="359" type="curve" smooth="yes"/>
      <point x="382" y="445"/>
      <point x="323" y="502"/>
    </contour>
  </outline>
</glyph>
<glyph name="h" format="2">
  <advance width="583"/>
  <unicode hex="0068"/>
  <outline>
    <contour>
      <point x="44" y="689" type="line"/>
      <point x="136" y="716" type="line"/>
      <point x="136" y="440" type="line"/>
      <point x="171" y="495"/>
      <point x="234" y="528"/>
      <point x="299" y="528" type="curve" smooth="yes"/>
      <point x="402" y="528"/>
      <point x="479" y="459"/>
      <point x="479" y="329" type="curve" smooth="yes"/>
      <point x="479" y="26" type="line"/>
      <point x="543" y="26" type="line"/>
      <point x="543" y="0" type="line"/>
      <point x="392" y="0" type="line"/>
      <point x="392" y="26" type="line"/>
      <point x="448" y="26" type="line"/>
      <point x="448" y="334" type="line" smooth="yes"/>
      <point x="448" y="445"/>
      <point x="381" y="502"/>
      <point x="293" y="502" type="curve" smooth="yes"/>
      <point x="226" y="502"/>
      <point x="174" y="461"/>
      <point x="136" y="407" type="curve"/>
      <point x="136" y="26" type="line"/>
      <point x="192" y="26" type="line"/>
      <point x="192" y="0" type="line"/>
      <point x="40" y="0" type="line"/>
      <point x="40" y="26" type="line"/>
      <point x="104" y="26" type="line"/>
      <point x="104" y="681" type="line"/>
      <point x="44" y="665" type="line"/>
    </contour>
  </outline>
</glyph>
<glyph name="i" format="2">
  <advance width="255"/>
  <unicode hex="0069"/>
  <outline>
    <contour>
      <point x="127" y="731" type="curve" smooth="yes"/>
      <point x="149" y="731"/>
      <point x="165" y="714"/>
      <point x="165" y="692" type="curve" smooth="yes"/>
      <point x="165" y="670"/>
      <point x="149" y="654"/>
      <point x="127" y="654" type="curve" smooth="yes"/>
      <point x="105" y="654"/>
      <point x="88" y="670"/>
      <point x="88" y="692" type="curve" smooth="yes"/>
      <point x="88" y="714"/>
      <point x="105" y="731"/>
    </contour>
    <component base="dotlessi" xOffset="-4"/>
  </outline>
</glyph>
<glyph name="l" format="2">
  <advance width="263"/>
  <unicode hex="006C"/>
  <outline>
    <contour>
      <point x="40" y="772" type="line"/>
      <point x="149" y="772" type="line"/>
      <point x="149" y="26" type="line"/>
      <point x="223" y="26" type="line"/>
      <point x="223" y="0" type="line"/>
      <point x="43" y="0" type="line"/>
      <point x="43" y="26" type="line"/>
      <point x="117" y="26" type="line"/>
      <point x="117" y="744" type="line"/>
      <point x="40" y="744" type="line"/>
    </contour>
  </outline>
</glyph>
<glyph name="m" format="2">
  <advance width="838"/>
  <unicode hex="006D"/>
  <outline>
    <contour>
      <point x="44" y="513" type="line"/>
      <point x="136" y="528" type="line"/>
      <point x="136" y="428" type="line"/>
      <point x="156" y="488"/>
      <point x="221" y="528"/>
      <point x="296" y="528" type="curve" smooth="yes"/>
      <point x="376" y="528"/>
      <point x="419" y="486"/>
      <point x="437" y="433" type="curve"/>
      <point x="462" y="487"/>
      <point x="524" y="528"/>
      <point x="601" y="528" type="curve" smooth="yes"/>
      <point x="678" y="528"/>
      <point x="750" y="475"/>
      <point x="750" y="355" type="curve" smooth="yes"/>
      <point x="750" y="26" type="line"/>
      <point x="814" y="26" type="line"/>
      <point x="814" y="0" type="line"/>
      <point x="719" y="0" type="line"/>
      <point x="719" y="355" type="line" smooth="yes"/>
      <point x="719" y="450"/>
      <point x="672" y="502"/>
      <point x="590" y="502" type="curve" smooth="yes"/>
      <point x="522" y="502"/>
      <point x="468" y="454"/>
      <point x="445" y="403" type="curve"/>
      <point x="445" y="26" type="line"/>
      <point x="509" y="26" type="line"/>
      <point x="509" y="0" type="line"/>
      <point x="414" y="0" type="line"/>
      <point x="414" y="361" type="line" smooth="yes"/>
      <point x="414" y="463"/>
      <point x="358" y="502"/>
      <point x="285" y="502" type="curve" smooth="yes"/>
      <point x="201" y="502"/>
      <point x="160" y="445"/>
      <point x="136" y="392" type="curve"/>
      <point x="136" y="26" type="line"/>
      <point x="200" y="26" type="line"/>
      <point x="200" y="0" type="line"/>
      <point x="40" y="0" type="line"/>
      <point x="40" y="26" type="line"/>
      <point x="104" y="26" type="line"/>
      <point x="104" y="500" type="line"/>
      <point x="44" y="490" type="line"/>
    </contour>
  </outline>
</glyph>
<glyph name="n" format="2">
  <advance width="544"/>
  <unicode hex="006E"/>
  <anchor x="274.4" y="687" name="AccentCenter"/>
  <outline>
    <contour>
      <point x="44" y="513" type="line"/>
      <point x="136" y="528" type="line"/>
      <point x="136" y="403" type="line"/>
      <point x="162" y="467"/>
      <point x="219" y="528"/>
      <point x="306" y="528" type="curve" smooth="yes"/>
      <point x="409" y="528"/>
      <point x="460" y="459"/>
      <point x="460" y="329" type="curve" smooth="yes"/>
      <point x="460" y="26" type="line"/>
      <point x="524" y="26" type="line"/>
      <point x="524" y="0" type="line"/>
      <point x="429" y="0" type="line"/>
      <point x="429" y="334" type="line" smooth="yes"/>
      <point x="429" y="445"/>
      <point x="388" y="502"/>
      <point x="300" y="502" type="curve" smooth="yes"/>
      <point x="216" y="502"/>
      <point x="159" y="426"/>
      <point x="136" y="365" type="curve"/>
      <point x="136" y="26" type="line"/>
      <point x="192" y="26" type="line"/>
      <point x="192" y="0" type="line"/>
      <point x="40" y="0" type="line"/>
      <point x="40" y="26" type="line"/>
      <point x="104" y="26" type="line"/>
      <point x="104" y="496" type="line"/>
      <point x="44" y="486" type="line"/>
    </contour>
  </outline>
</glyph>
<glyph name="o" format="2">
  <advance width="550"/>
  <unicode hex="006F"/>
  <anchor x="272" y="687" name="AccentCenter"/>
  <outline>
    <contour>
      <point x="277" y="502" type="curve" smooth="yes"/>
      <point x="162" y="502"/>
      <point x="96" y="399"/>
      <point x="96" y="259" type="curve" smooth="yes"/>
      <point x="96" y="120"/>
      <point x="159" y="18"/>
      <point x="275" y="18" type="curve" smooth="yes"/>
      <point x="392" y="18"/>
      <point x="454" y="120"/>
      <point x="454" y="259" type="curve" smooth="yes"/>
      <point x="454" y="398"/>
      <point x="392" y="502"/>
    </contour>
    <contour>
      <point x="277" y="528" type="curve" smooth="yes"/>
      <point x="405" y="528"/>
      <point x="486" y="427"/>
      <point x="486" y="259" type="curve" smooth="yes"/>
      <point x="486" y="100"/>
      <point x="400" y="-8"/>
      <point x="275" y="-8" type="curve" smooth="yes"/>
      <point x="150" y="-8"/>
      <point x="64" y="96"/>
      <point x="64" y="259" type="curve" smooth="yes"/>
      <point x="64" y="426"/>
      <point x="148" y="528"/>
    </contour>
  </outline>
</glyph>
<glyph name="p" format="2">
  <advance width="584"/>
  <unicode hex="0070"/>
  <outline>
    <contour>
      <point x="40" y="520" type="line"/>
      <point x="138" y="520" type="line"/>
      <point x="145" y="434" type="line"/>
      <point x="169" y="479"/>
      <point x="221" y="528"/>
      <point x="311" y="528" type="curve" smooth="yes"/>
      <point x="450" y="528"/>
      <point x="520" y="409"/>
      <point x="520" y="253" type="curve" smooth="yes"/>
      <point x="520" y="85"/>
      <point x="432" y="-8"/>
      <point x="307" y="-8" type="curve" smooth="yes"/>
      <point x="220" y="-8"/>
      <point x="174" y="37"/>
      <point x="146" y="82" type="curve"/>
      <point x="146" y="-166" type="line"/>
      <point x="220" y="-166" type="line"/>
      <point x="220" y="-192" type="line"/>
      <point x="114" y="-192" type="line"/>
      <point x="114" y="494" type="line"/>
      <point x="40" y="494" type="line"/>
    </contour>
    <contour>
      <point x="146" y="382" type="curve"/>
      <point x="146" y="137" type="line"/>
      <point x="156" y="77"/>
      <point x="222" y="18"/>
      <point x="299" y="18" type="curve" smooth="yes"/>
      <point x="421" y="18"/>
      <point x="488" y="100"/>
      <point x="488" y="255" type="curve" smooth="yes"/>
      <point x="488" y="396"/>
      <point x="425" y="502"/>
      <point x="311" y="502" type="curve" smooth="yes"/>
      <point x="215" y="502"/>
      <point x="159" y="427"/>
    </contour>
  </outline>
</glyph>
<glyph name="q" format="2">
  <advance width="600"/>
  <unicode hex="0071"/>
  <outline>
    <contour>
      <point x="560" y="520" type="line"/>
      <point x="462" y="520" type="line"/>
      <point x="455" y="434" type="line"/>
      <point x="431" y="479"/>
      <point x="375" y="528"/>
      <point x="279" y="528" type="curve" smooth="yes"/>
      <point x="140" y="528"/>
      <point x="65" y="407"/>
      <point x="65" y="251" type="curve" smooth="yes"/>
      <point x="65" y="83"/>
      <point x="168" y="-8"/>
      <point x="293" y="-8" type="curve" smooth="yes"/>
      <point x="380" y="-8"/>
      <point x="426" y="37"/>
      <point x="454" y="82" type="curve"/>
      <point x="454" y="-192" type="line"/>
      <point x="560" y="-192" type="line"/>
      <point x="560" y="-166" type="line"/>
      <point x="486" y="-166" type="line"/>
      <point x="486" y="494" type="line"/>
      <point x="560" y="494" type="line"/>
    </contour>
    <contour>
      <point x="454" y="382" type="curve"/>
      <point x="454" y="137" type="line"/>
      <point x="444" y="77"/>
      <point x="378" y="18"/>
      <point x="301" y="18" type="curve" smooth="yes"/>
      <point x="179" y="18"/>
      <point x="97" y="98"/>
      <point x="97" y="253" type="curve" smooth="yes"/>
      <point x="97" y="394"/>
      <point x="160" y="502"/>
      <point x="279" y="502" type="curve" smooth="yes"/>
      <point x="375" y="502"/>
      <point x="441" y="427"/>
    </contour>
  </outline>
</glyph>
<glyph name="r" format="2">
  <advance width="373"/>
  <unicode hex="0072"/>
  <outline>
    <contour>
      <point x="133" y="528" type="line"/>
      <point x="140" y="421" type="line"/>
      <point x="156" y="471"/>
      <point x="238" y="528"/>
      <point x="309" y="528" type="curve" smooth="yes"/>
      <point x="324" y="528"/>
      <point x="335" y="527"/>
      <point x="349" y="524" type="curve"/>
      <point x="344" y="453" type="line"/>
      <point x="344" y="442"/>
      <point x="339" y="425"/>
      <point x="322" y="425" type="curve"/>
      <point x="317" y="506" type="line"/>
      <point x="230" y="506"/>
      <point x="162" y="438"/>
      <point x="140" y="383" type="curve"/>
      <point x="140" y="22" type="line"/>
      <point x="214" y="22" type="line"/>
      <point x="214" y="0" type="line"/>
      <point x="34" y="0" type="line"/>
      <point x="34" y="22" type="line"/>
      <point x="108" y="22" type="line"/>
      <point x="108" y="500" type="line"/>
      <point x="34" y="488" type="line"/>
      <point x="34" y="510" type="line"/>
    </contour>
  </outline>
</glyph>
<glyph name="s" format="2">
  <advance width="474"/>
  <unicode hex="0073"/>
  <outline>
    <contour>
      <point x="247" y="528" type="curve" smooth="yes"/>
      <point x="312" y="528"/>
      <point x="357" y="511"/>
      <point x="401" y="477" type="curve"/>
      <point x="378" y="372" type="line"/>
      <point x="352" y="378" type="line"/>
      <point x="368" y="468" type="line"/>
      <point x="330" y="490"/>
      <point x="290" y="502"/>
      <point x="247" y="502" type="curve" smooth="yes"/>
      <point x="159" y="502"/>
      <point x="99" y="466"/>
      <point x="99" y="395" type="curve" smooth="yes"/>
      <point x="99" y="336"/>
      <point x="137" y="313"/>
      <point x="205" y="292" type="curve" smooth="yes"/>
      <point x="266" y="273" type="line" smooth="yes"/>
      <point x="345" y="249"/>
      <point x="418" y="216"/>
      <point x="418" y="124" type="curve" smooth="yes"/>
      <point x="418" y="31"/>
      <point x="346" y="-8"/>
      <point x="243" y="-8" type="curve" smooth="yes"/>
      <point x="158" y="-8"/>
      <point x="106" y="8"/>
      <point x="56" y="44" type="curve"/>
      <point x="56" y="146" type="line"/>
      <point x="88" y="146" type="line"/>
      <point x="88" y="59" type="line"/>
      <point x="134" y="30"/>
      <point x="180.0743408203125" y="18"/>
      <point x="241" y="18" type="curve" smooth="yes"/>
      <point x="331" y="18"/>
      <point x="386" y="47"/>
      <point x="386" y="124" type="curve" smooth="yes"/>
      <point x="386" y="187"/>
      <point x="340" y="218"/>
      <point x="258" y="243" type="curve" smooth="yes"/>
      <point x="197" y="262" type="line" smooth="yes"/>
      <point x="144" y="278"/>
      <point x="71" y="308"/>
      <point x="69" y="395" type="curve" smooth="yes"/>
      <point x="68" y="472"/>
      <point x="132" y="528"/>
    </contour>
  </outline>
</glyph>
<glyph name="t" format="2">
  <advance width="307"/>
  <unicode hex="0074"/>
  <outline>
    <contour>
      <point x="106" y="671" type="line"/>
      <point x="138" y="687" type="line"/>
      <point x="138" y="520" type="line"/>
      <point x="277" y="520" type="line"/>
      <point x="277" y="492" type="line"/>
      <point x="138" y="492" type="line"/>
      <point x="138" y="92" type="line" smooth="yes"/>
      <point x="138" y="45"/>
      <point x="169" y="19"/>
      <point x="216" y="19" type="curve"/>
      <point x="225" y="19"/>
      <point x="241" y="20"/>
      <point x="259" y="23" type="curve" smooth="yes"/>
      <point x="282" y="28" type="line"/>
      <point x="286" y="4" type="line"/>
      <point x="248" y="-6"/>
      <point x="229" y="-8"/>
      <point x="208" y="-8" type="curve" smooth="yes"/>
      <point x="149" y="-8"/>
      <point x="106" y="28"/>
      <point x="106" y="92" type="curve" smooth="yes"/>
      <point x="106" y="492" type="line"/>
      <point x="0" y="492" type="line"/>
      <point x="0" y="512" type="line"/>
      <point x="106" y="520" type="line"/>
    </contour>
  </outline>
</glyph>
<glyph name="v" format="2">
  <advance width="532"/>
  <unicode hex="0076"/>
  <outline>
    <contour>
      <point x="4" y="520" type="line"/>
      <point x="163" y="520" type="line"/>
      <point x="163" y="494" type="line"/>
      <point x="100" y="494" type="line"/>
      <point x="281" y="32" type="line"/>
      <point x="442" y="494" type="line"/>
      <point x="377" y="494" type="line"/>
      <point x="377" y="520" type="line"/>
      <point x="528" y="520" type="line"/>
      <point x="528" y="494" type="line"/>
      <point x="470" y="494" type="line"/>
      <point x="298" y="0" type="line"/>
      <point x="256" y="0" type="line"/>
      <point x="65" y="494" type="line"/>
      <point x="4" y="494" type="line"/>
    </contour>
  </outline>
</glyph>
<glyph name="y" format="2">
  <advance width="532"/>
  <unicode hex="0079"/>
  <anchor x="293.2" y="687" name="AccentCenter"/>
  <outline>
    <contour>
      <point x="4" y="520" type="line"/>
      <point x="163" y="520" type="line"/>
      <point x="163" y="494" type="line"/>
      <point x="100" y="494" type="line"/>
      <point x="279" y="39" type="line"/>
      <point x="447" y="520" type="line"/>
      <point x="528" y="520" type="line"/>
      <point x="528" y="494" type="line"/>
      <point x="470" y="494" type="line"/>
      <point x="230" y="-192" type="line"/>
      <point x="151" y="-192" type="line"/>
      <point x="151" y="-166" type="line"/>
      <point x="196.34375" y="-166" type="line"/>
      <point x="256" y="0" type="line"/>
      <point x="65" y="494" type="line"/>
      <point x="4" y="494" type="line"/>
    </contour>
  </outline>
</glyph>
<glyph name="cent" format="2">
  <advance width="509"/>
  <unicode hex="00A2"/>
  <outline>
    <contour>
      <point x="266" y="520" type="line"/>
      <point x="266" y="618" type="line"/>
      <point x="298" y="618" type="line"/>
      <point x="298" y="520" type="line"/>
    </contour>
    <contour>
      <point x="298" y="0" type="line"/>
      <point x="298" y="-94" type="line"/>
      <point x="266" y="-94" type="line"/>
      <point x="266" y="0" type="line"/>
    </contour>
    <component base="c"/>
  </outline>
</glyph>
<glyph name="sterling" format="2">
  <advance width="526"/>
  <unicode hex="00A3"/>
  <outline>
    <contour>
      <point x="308" y="716" type="curve" smooth="yes"/>
      <point x="398" y="716"/>
      <point x="443" y="689"/>
      <point x="478" y="665" type="curve"/>
      <point x="468" y="636" type="line"/>
      <point x="430" y="661"/>
      <point x="387" y="690"/>
      <point x="305" y="690" type="curve" smooth="yes"/>
      <point x="205" y="690"/>
      <point x="142" y="631"/>
      <point x="142" y="538" type="curve" smooth="yes"/>
      <point x="142" y="480"/>
      <point x="165" y="428"/>
      <point x="189" y="366" type="curve"/>
      <point x="347" y="366" type="line"/>
      <point x="347" y="340" type="line"/>
      <point x="199" y="340" type="line"/>
      <point x="237" y="243" type="line"/>
      <point x="80" y="26" type="line"/>
      <point x="446" y="26" type="line"/>
      <point x="446" y="110" type="line"/>
      <point x="478" y="110" type="line"/>
      <point x="478" y="0" type="line"/>
      <point x="49" y="0" type="line"/>
      <point x="49" y="33" type="line"/>
      <point x="205" y="244" type="line"/>
      <point x="168" y="340" type="line"/>
      <point x="44" y="340" type="line"/>
      <point x="44" y="366" type="line"/>
      <point x="158" y="366" type="line"/>
      <point x="137" y="422"/>
      <point x="112" y="474"/>
      <point x="112" y="535" type="curve" smooth="yes"/>
      <point x="112" y="649"/>
      <point x="189" y="716"/>
    </contour>
  </outline>
</glyph>
